<?xml version="1.0" encoding="UTF-8" standalone="no"?>
<!-- Created with Inkscape (http://www.inkscape.org/) -->

<svg
   width="98.735001mm"
   height="56.884998mm"
   viewBox="0 0 98.735 56.884997"
   version="1.1"
   id="svg1"
   inkscape:version="1.3 (0e150ed6c4, 2023-07-21)"
   sodipodi:docname="exatolp-tentative-logo.svg"
   xmlns:inkscape="http://www.inkscape.org/namespaces/inkscape"
   xmlns:sodipodi="http://sodipodi.sourceforge.net/DTD/sodipodi-0.dtd"
   xmlns="http://www.w3.org/2000/svg"
   xmlns:svg="http://www.w3.org/2000/svg">
  <sodipodi:namedview
     id="namedview1"
     pagecolor="#ffffff"
     bordercolor="#000000"
     borderopacity="0.25"
     inkscape:showpageshadow="2"
     inkscape:pageopacity="0.0"
     inkscape:pagecheckerboard="0"
     inkscape:deskcolor="#d1d1d1"
     inkscape:document-units="mm"
     showguides="false"
     inkscape:lockguides="false"
     inkscape:zoom="1.122532"
     inkscape:cx="177.27779"
     inkscape:cy="237.40971"
     inkscape:window-width="1920"
     inkscape:window-height="1129"
     inkscape:window-x="-8"
     inkscape:window-y="-8"
     inkscape:window-maximized="1"
     inkscape:current-layer="layer1" />
  <defs
     id="defs1">
    <rect
       x="274.3797"
       y="356.33728"
       width="179.95032"
       height="109.57371"
       id="rect37" />
    <rect
       x="256.56284"
       y="375.93582"
       width="155.00671"
       height="70.37661"
       id="rect36" />
    <rect
       x="307.34091"
       y="367.0274"
       width="49.011288"
       height="56.303516"
       id="rect35" />
    <rect
       x="194.01575"
       y="154.96063"
       width="306.14172"
       height="202.83466"
       id="rect1" />
  </defs>
  <g
     inkscape:label="Layer 1"
     inkscape:groupmode="layer"
     id="layer1"
     transform="translate(-60.08323,25.863361)">
    <text
       xml:space="preserve"
       transform="matrix(0.264587,0,0,0.25847985,11.076532,-69.567977)"
       id="text1"
       style="font-size:32px;white-space:pre;shape-inside:url(#rect1);display:inline;fill:#000000" />
    <text
       xml:space="preserve"
       style="font-style:normal;font-variant:normal;font-weight:normal;font-stretch:normal;font-size:8.3685px;font-family:Chiller;-inkscape-font-specification:Chiller;fill:#000000;stroke-width:0.261515"
       x="83.101547"
       y="-6.7976108"
       id="text2"
       transform="scale(1.0117446,0.98839173)"><tspan
         sodipodi:role="line"
         id="tspan2"
         style="stroke-width:0.261515"
         x="83.101547"
         y="-6.7976108" /></text>
    <path
       style="fill:#333333;stroke-width:0.261515"
       id="path3"
       d="m 95.256254,12.842768 c 0.883855,-1.850018 1.871575,-3.648397 2.756805,-5.498152 0.83444,-1.730798 1.71004,-3.45778 2.734921,-5.089718 0.91896,-1.49356702 2.11,-2.79917401 3.32909,-4.061972 0.71661,-0.719667 1.55592,-1.280429 2.46463,-1.73935 0.654,-0.309855 1.36851,-0.379487 2.08341,-0.411453 0,0 -3.21374,-2.249437 -3.21374,-2.249437 v 0 c -0.75364,0.06347 -1.49476,0.195879 -2.16687,0.555794 -0.92275,0.505938 -1.78723,1.094225 -2.50308,1.864694 -1.211651,1.301601 -2.382611,2.648773 -3.348461,4.13821099 C 96.363829,1.998088 95.517372,3.754552 94.659336,5.490435 93.772389,7.341466 92.855904,9.18034 91.804995,10.94918 Z" />
    <path
       style="fill:#333333;stroke-width:0.261515"
       id="path4"
       d="m 92.097257,-2.348093 c 1.08268,1.66428199 1.871702,3.485541 2.737351,5.261076 0.999901,1.917282 2.096651,3.78416 3.156811,5.669737 0.50875,0.9944855 1.08338,1.924155 1.79882,2.786852 1.365411,1.475146 3.273961,2.665524 5.320371,2.886594 0.61457,0.07843 1.13074,0.066 1.60888,-0.341129 0,0 -3.35435,-2.066993 -3.35435,-2.066993 v 0 c -0.42724,0.259744 -0.93868,0.1464 -1.41398,0.09452 -1.51207,-0.283865 -2.435901,-1.210479 2.3501,1.589936 0.0973,0.05695 -0.20745,-0.09145 -0.30372,-0.15012 -0.28065,-0.171046 -0.35119,-0.270009 -0.58694,-0.50349 -0.30546,-0.371343 -0.65973,-0.718228 -0.92864,-1.116624 -0.35206,-0.521596 -0.58345,-1.115164 -0.94622,-1.631002 C 100.45351,8.247461 99.337109,6.381616 98.321339,4.461883 97.466429,2.70971 96.705999,0.90819698 95.710415,-0.77466001 Z" />
    <path
       style="fill:#333333;stroke-width:0.261515"
       id="path5"
       d="m 113.33732,-0.55303801 c 0.96488,-0.377249 1.95096,-0.70054199 2.96435,-0.92742399 0.5323,-0.05613 1.11967,-0.267593 1.65827,-0.13055 0.24617,0.06264 0.52794,0.248172 0.73955,0.371356 1.70145,0.95160399 -1.9754,-1.106247 -2.6419,-1.44389 -0.12846,-0.06507 0.21652,0.187804 0.31922,0.287388 0.32893,0.318975 0.56616,0.6519 0.79362,1.043651 0.34102,0.79273499 0.68076,1.58686299 0.90934,2.418364 0.18476,0.773421 0.21762,1.568011 0.24109,2.358435 0.0261,1.130546 0.0161,2.261518 0.0188,3.392266 -0.0409,1.207967 -0.16855,2.409776 -0.45223,3.586676 -0.23722,0.778128 -0.73108,1.467109 -1.30013,2.051407 -0.59815,0.591744 -1.45304,0.805992 -2.26141,0.974442 -0.64086,0.06347 -1.30511,0.240316 -1.9548,0.19708 -0.33384,-0.0222 -0.68837,-0.14862 -1.00274,-0.242255 -1.22033,-0.598993 -3.7463,-1.830492 1.67441,0.993586 0.16461,0.08576 -0.3031,-0.212721 -0.44993,-0.325152 -0.39032,-0.29889 -0.44334,-0.361311 -0.79483,-0.68384 -0.76984,-0.733144 -1.11403,-1.395175 -1.1475,-2.446951 0.0199,-1.1369155 0.61583,-2.06781 1.27602,-2.956332 0.76684,-0.806165 1.76562,-1.279873 2.82912,-1.588056 0.8479,-0.219548 1.72456,-0.244858 2.59592,-0.25507 0.78713,-0.08159 1.41579,0.321269 2.10938,0.602762 1.47116,0.866303 -0.93156,-0.552088 -2.80208,-1.545935 -0.0844,-0.04486 0.14948,0.119154 0.21398,0.188752 0.18112,0.195419 0.29816,0.450158 0.42662,0.678942 0.32922,0.653925 0.32206,1.400798 0.34841,2.113282 -0.003,0.820221 -0.005,1.6308735 0.1772,2.434464 0.20279,0.745784 0.44521,1.479577 0.7135,2.20505 0.25766,0.601242 0.52143,1.195252 0.92378,1.71771 1.54161,1.621953 3.34168,2.473846 5.48615,2.659264 0.8564,0.07884 1.50214,0.08897 2.11966,-0.555279 0.0632,-0.06872 0.12639,-0.137426 0.18957,-0.206139 0,0 -3.38872,-2.006108 -3.38872,-2.006108 v 0 c -0.0595,0.06371 -0.11901,0.127405 -0.17851,0.191105 -0.52317,0.468983 -1.25011,0.334325 -1.90438,0.27945 -0.30589,-0.03985 -0.5412,-0.06056 -0.84033,-0.139266 -0.13016,-0.03424 -0.49734,-0.19636 -0.3831,-0.126467 5.4352,3.325465 3.62685,2.189596 2.5384,1.4183 -0.43812,-0.483091 -0.71072,-1.019768 -0.98842,-1.603129 -0.26423,-0.717312 -0.5218,-1.434715 -0.72475,-2.171776 -0.24161,-0.771021 -0.23366,-1.561856 -0.22841,-2.3624275 -0.0195,-0.7523325 0.008,-1.5338595 -0.24954,-2.2525905 -0.90563,-1.931413 -2.05576,-2.295652 -4.54519,-3.30673 -0.71637,-0.306055 -1.40683,-0.560183 -2.20761,-0.470777 -0.89376,0.0252 -1.78856,0.08903 -2.64664,0.356483 -1.11573,0.375625 -2.17145,0.914387 -2.96385,1.791552 -0.70315,0.945243 -1.31617,1.970444 -1.38685,3.166786 -0.0556,1.13835 0.19889,1.884148 1.00676,2.722207 1.732,1.754962 4.00983,2.924903 6.31648,3.813379 1.03133,0.218814 2.04474,0.125329 3.07165,-0.101834 0.88144,-0.213649 1.77348,-0.484432 2.40807,-1.156524 0.59558,-0.651646 1.12411,-1.387687 1.37874,-2.233503 0.29661,-1.205145 0.41458,-2.4352085 0.48211,-3.671569 0.007,-1.128252 0.009,-2.256516 0.0156,-3.384771 -0.0101,-0.815905 -0.048,-1.634254 -0.20957,-2.437046 -0.19535,-0.866533 -0.55979,-1.669669 -0.86978,-2.50082901 -0.99056,-2.06516099 -2.99506,-2.84323499 -5.13715,-3.87178499 -0.88631,-0.354495 -1.64416,-0.243824 -2.5566,-0.01977 -1.02638,0.262186 -2.03011,0.600376 -3.02274,0.96521 z" />
    <path
       style="fill:#333333;stroke-width:0.261515"
       id="path6"
       d="m 133.37539,14.668209 c -1.15566,-1.210877 -1.63939,-2.88632 -2.24425,-4.398371 -0.74389,-1.81664 -1.1564,-3.733446 -1.53317,-5.647922 -0.38348,-1.998692 -0.41787,-4.02586402 -0.27311,-6.047523 0.22464,-2.203355 0.73429,-4.365043 1.15234,-6.537777 0.35233,-2.243967 0.98834,-4.403406 1.78346,-6.531145 0.58717,-1.600683 1.2406,-3.176593 1.96622,-4.721693 0.21635,-0.456563 0.33196,-0.944038 0.61969,-1.364228 0,0 -3.41976,-1.948902 -3.41976,-1.948902 v 0 c -0.28313,0.449334 -0.42148,0.943519 -0.61609,1.433545 -0.68831,1.574535 -1.32358,3.170653 -1.8941,4.789955 -0.0841,0.224927 -0.80868,2.154731 -0.88101,2.377552 -0.44484,1.370294 -0.64389,2.79808 -0.94545,4.200418 -0.42402,2.183718 -0.93183,4.355714 -1.18984,6.566953 -0.15814,2.047493 -0.13568,4.10069198 0.21671,6.130963 0.38308,1.935761 0.77365,3.882533 1.52514,5.720831 0.61303,1.517833 1.06322,3.177646 2.07346,4.49641 z" />
    <path
       style="fill:#333333;stroke-width:0.261515"
       id="path7"
       d="m 122.62637,-8.837706 c 1.88792,-0.148837 3.75317,-0.490602 5.60857,-0.855415 2.41227,-0.400388 4.79541,-0.943702 7.2066,-1.348471 1.72388,-0.250157 3.44229,-0.519198 5.17993,-0.660093 0.64464,-0.04941 1.291,-0.06566 1.93729,-0.07496 0,0 -3.19661,-2.257209 -3.19661,-2.257209 v 0 c -0.64254,0.02153 -1.28483,0.05254 -1.92469,0.116345 -1.72458,0.175993 -3.43231,0.457558 -5.14431,0.723128 -2.40618,0.434156 -4.79497,0.955564 -7.20774,1.355996 -1.86881,0.351984 -3.75509,0.703246 -5.66411,0.725806 z" />
    <path
       style="fill:#333333;stroke-width:0.261515"
       id="path8"
       d="m 133.64909,0.53105698 c 0.03,1.26159102 0.0262,2.52382802 0.0197,3.78568602 -0.0109,1.005005 -0.006,2.010052 -0.0102,3.015089 0.0191,0.927958 0.2723,1.820859 0.66292,2.6610075 1.20359,1.8793795 3.94065,2.8931075 5.68255,3.8596895 0.94126,0.451456 1.94822,0.649891 2.98466,0.722128 0.92738,0.113928 1.77604,-0.2175 2.6176,-0.544863 0.85955,-0.407759 1.49849,-1.178753 2.03012,-1.935843 0.91227,-1.318335 1.16037,-2.943491 1.45682,-4.477731 0.30457,-1.640926 0.35173,-3.310832 0.38178,-4.973807 0.12173,-1.530283 -0.0908,-2.99676901 -0.63793,-4.429941 -0.3112,-0.700852 -0.79589,-1.353242 -1.48404,-1.74578 -3.7305,-2.127974 -2.41418,-1.751912 -4.27443,-2.223 -0.97239,-0.156703 -1.96371,-0.20781 -2.94372,-0.107848 -0.71201,0.212825 -1.46745,0.454449 -2.06785,0.90332 -0.0511,0.03819 -0.87324,0.7637 -0.93114,0.814664 -0.69677,0.616857 -1.22068,1.367457 -1.69807,2.150498 -0.25811,0.539581 -0.63132,0.99958499 -0.85925,1.55450799 -0.25063,0.615926 -0.52629,1.21975099 -0.71158,1.85839601 0,0 3.47313,1.844522 3.47313,1.844522 v 0 c 0.1695,-0.629673 0.44576,-1.218177 0.6967,-1.819694 0.21004,-0.54042602 0.5927,-0.97387201 0.82316,-1.50478601 0.44504,-0.755811 0.93383,-1.47863399 1.60425,-2.06669099 0.85827,-0.749274 1.6898,-1.337706 2.86442,-1.502773 0.95718,-0.03957 1.92946,-0.01509 2.86002,0.229599 1.5017,0.559956 0.56409,0.23784 -2.49382,-1.52715 -0.15098,-0.08714 0.30951,0.162615 0.45384,0.259901 0.49328,0.33248 0.89285,0.74322 1.1411,1.28122 0.61585,1.374868 0.83841,2.80260399 0.72663,4.30228798 -0.0271,1.64560502 -0.0639,3.29679202 -0.34093,4.92432802 -0.27051,1.485194 -0.53055,3.043869 -1.42374,4.31047 -0.50077,0.698496 -1.09969,1.396631 -1.92196,1.734871 -0.80857,0.309249 -1.62183,0.537472 -2.50121,0.404037 -1.00632,-0.11445 -1.9789,-0.360047 -2.87911,-0.829729 0.93933,0.537936 1.88169,1.070828 2.81797,1.613802 0.16105,0.0934 -0.33427,-0.166428 -0.49209,-0.264963 -0.52069,-0.325098 -0.99637,-0.753414 -1.36486,-1.235448 -0.46439,-0.749757 -0.66247,-1.6263855 -0.74592,-2.494024 -0.004,-1.008412 8e-4,-2.016835 -0.0102,-3.025219 -0.006,-1.255325 -0.0107,-2.511052 0.0197,-3.766105 z" />
    <path
       style="fill:#333333;stroke-width:0.262;stroke-dasharray:none"
       id="path9"
       d="m 82.65696,-21.008862 c 1.235809,-0.394285 2.461759,-0.818875 3.713357,-1.163741 1.131045,-0.292258 2.302118,-0.326876 3.464478,-0.355074 0.64259,0.01592 1.28181,0.09551 1.889776,0.307563 0.175601,0.06124 0.674064,0.309336 0.513494,0.21674 -3.554591,-2.049822 -3.717021,-2.197822 -2.513714,-1.305436 0.414195,0.417804 1.031595,1.119866 0.642619,1.718676 -0.692438,0.650885 -1.658913,0.958782 -2.578507,1.159784 -1.326189,0.347194 -2.70547,0.432209 -4.071123,0.498847 -1.386499,0.05415 -2.774349,0.05056 -4.16166,0.04562 -0.952783,-0.0068 -1.90556,-0.01168 -2.858373,-0.01104 -1.080052,0.0025 -2.160107,0.0023 -3.240165,0.0041 -1.193823,-0.0036 -2.387627,0.0019 -3.581456,0.0021 -0.969302,0.04841 -1.956441,-0.0964 -2.918396,0.0454 -0.797946,0.291044 -0.92273,0.888104 -0.884265,1.643791 0.303809,1.304237 0.588254,2.609366 0.768364,3.936013 0.144305,1.264404 0.154219,2.538611 0.159297,3.809399 3.9e-5,0.947057 -0.0073,1.894073 -0.0058,2.841128 0.0249,0.839496 -0.142766,1.667511 -0.241536,2.498146 -0.06116,0.852632 -0.353533,1.665858 -0.549952,2.494888 -0.390137,1.363244 -0.608189,2.76154999 -0.873291,4.150619 -0.273374,1.46962 -0.584293,2.936964 -1.10295,4.344324 -0.536833,1.328251 -1.047949,2.668299 -1.638626,3.9748625 -1.253807,2.9705505 -0.80599,2.0362675 3.219581,4.1172115 1.197635,-0.141443 2.380603,-0.379523 3.579087,-0.525878 1.218646,-0.129837 2.44621,-0.135825 3.670597,-0.14906 1.778361,-0.101769 3.502659,0.306674 5.218812,0.695157 1.207602,0.334477 2.400342,0.728627 3.652044,0.865255 1.32085,0.06781 2.650694,0.120051 3.971324,0.02987 1.012606,-0.03278 1.947569,-0.372464 2.800381,-0.88704 0.673829,-0.534095 1.337138,-1.078448 1.85983,-1.758687 0.06703,-0.113674 0.134058,-0.227346 0.201085,-0.341018 0,0 -3.420421,-1.9264265 -3.420421,-1.9264265 v 0 c -0.05753,0.1001555 -0.115064,0.2003115 -0.172593,0.3004675 -0.493002,0.639634 -1.128495,1.147616 -1.777858,1.631189 -0.824939,0.457193 -1.710505,0.736977 -2.667812,0.754393 -1.312608,0.06267 -2.634763,0.02775 -3.942233,-0.101867 -1.218463,-0.193552 -2.392986,-0.560461 -3.586971,-0.859812 -1.743333,-0.384965 -3.501846,-0.726923 -5.301257,-0.643429 -1.236921,0.01202 -2.477963,0.03123 -3.706885,0.181249 -1.174942,0.163398 -2.351684,0.449282 -3.540963,0.422231 1.022925,0.615992 2.064638,1.203157 3.068775,1.847979 0.06547,0.04205 -0.173566,0.02222 -0.233389,-0.0272 -0.05654,-0.04672 -0.06432,-0.138787 -0.05426,-0.210459 0.07459,-0.531497 0.427951,-1.030981 0.568582,-1.542444 0.584584,-1.31861 1.090741,-2.669496 1.649803,-3.998611 0.521379,-1.428838 0.838449,-2.912714 1.114139,-4.403735 0.288146,-1.375332 0.4808,-2.77090302 0.896596,-4.11828201 0.220263,-0.83627999 0.521283,-1.66506199 0.597103,-2.52726099 0.08885,-0.846529 0.260765,-1.688842 0.246637,-2.541921 0.0055,-0.949598 0.0066,-1.899253 -0.0013,-2.848839 -0.01535,-1.285645 -0.04014,-2.572321 -0.14555,-3.854477 -0.170745,-1.318717 -0.444588,-2.620331 -0.753535,-3.914427 -0.08282,-0.521133 -0.04091,-1.022691 0.582398,-1.123766 0.950769,-0.06791 1.907897,-0.0055 2.860302,-0.03254 1.195777,1.98e-4 2.391533,0.0057 3.587307,0.0021 1.084725,0.0019 2.169456,0.0019 3.254172,0.0064 0.947087,0.003 1.894178,0.0033 2.84126,-0.0021 1.387983,-0.0066 2.777102,-0.006 4.163763,-0.06996 1.386536,-0.08261 2.782018,-0.195574 4.129018,-0.545744 1.007092,-0.262307 2.049715,-0.634416 2.775466,-1.3963 0.06518,-0.108461 0.152274,-0.206926 0.195536,-0.325385 0.246188,-0.674098 -0.226444,-1.385175 -0.620202,-1.890881 -1.830654,-1.726754 -4.185057,-2.883669 -6.703603,-2.899291 -1.186932,0.03644 -2.379669,0.09658 -3.524891,0.433851 -1.251508,0.372867 -2.483208,0.810111 -3.748886,1.136642 z" />
    <ellipse
       id="path23"
       style="fill:#000000;stroke:#000000;stroke-width:0.261515"
       cx="172.53482"
       cy="-70.94957"
       rx="0.038765308"
       ry="0.037870534" />
    <path
       style="fill:#333333;stroke-width:0.261515"
       id="path28"
       d="m 71.07683,-3.695168 c 1.574719,-0.05743 3.151023,-0.03908 4.726506,-0.04212 1.322985,0.07289 2.634898,-0.08064 3.951824,-0.167988 0.449618,-0.03024 0.900154,-0.03659 1.350635,-0.03607 0,0 -3.984882,-2.735609 -3.984882,-2.735609 v 0 c -0.452795,0.03494 -0.905032,0.07579 -1.357249,0.117269 -1.258989,0.105628 -2.519053,0.124208 -3.782644,0.109418 -1.615062,-0.0031 -3.230822,0.0139 -4.845188,-0.04212 z" />
    <text
       xml:space="preserve"
       transform="matrix(0.39562396,0,0,0.36475203,18.85109,-120.47837)"
       id="text35"
       style="font-style:normal;font-variant:normal;font-weight:normal;font-stretch:normal;font-size:48px;font-family:Calibri;-inkscape-font-specification:Calibri;white-space:pre;shape-inside:url(#rect35);display:inline;fill:#000000"><tspan
         x="307.3418"
         y="409.02734"
         id="tspan3"><tspan
           style="fill:#d40000"
           id="tspan1">LP</tspan></tspan></text>
    <text
       xml:space="preserve"
       transform="matrix(0.264587,0,0,0.25847985,11.076532,-69.567977)"
       id="text36"
       style="font-style:normal;font-variant:normal;font-weight:normal;font-stretch:normal;font-size:48px;font-family:Helvetica;-inkscape-font-specification:Helvetica;white-space:pre;shape-inside:url(#rect36);display:inline;fill:#d40000" />
    <text
       xml:space="preserve"
       transform="matrix(0.264587,0,0,0.25847985,11.076532,-69.567977)"
       id="text37"
       style="font-style:normal;font-variant:normal;font-weight:normal;font-stretch:normal;font-size:48px;font-family:Helvetica;-inkscape-font-specification:Helvetica;white-space:pre;shape-inside:url(#rect37);display:inline;fill:#d40000" />
  </g>
</svg>
